<mxfile host="app.diagrams.net" modified="2020-09-19T03:54:35.725Z" agent="5.0 (Windows)" etag="vLmNMURWmwwCuOj6D7GO" version="13.7.3" type="github">
  <diagram id="f7K92m8lPwK_zH6lzFKC" name="Page-1">
    <mxGraphModel dx="806" dy="1369" grid="1" gridSize="10" guides="1" tooltips="1" connect="1" arrows="1" fold="1" page="1" pageScale="1" pageWidth="1100" pageHeight="850" math="0" shadow="0">
      <root>
        <mxCell id="0" />
        <mxCell id="1" parent="0" />
        <mxCell id="Ezx1aa0zkLy5vHlaYmTx-1" value="addresses" style="rounded=0;whiteSpace=wrap;html=1;" vertex="1" parent="1">
          <mxGeometry x="210" y="110" width="120" height="60" as="geometry" />
        </mxCell>
        <mxCell id="Ezx1aa0zkLy5vHlaYmTx-2" value="&lt;u&gt;id&lt;/u&gt;" style="ellipse;whiteSpace=wrap;html=1;" vertex="1" parent="1">
          <mxGeometry x="30" y="80" width="120" height="60" as="geometry" />
        </mxCell>
        <mxCell id="Ezx1aa0zkLy5vHlaYmTx-3" value="user_id" style="ellipse;whiteSpace=wrap;html=1;" vertex="1" parent="1">
          <mxGeometry x="130" width="120" height="60" as="geometry" />
        </mxCell>
        <mxCell id="Ezx1aa0zkLy5vHlaYmTx-4" value="address" style="ellipse;whiteSpace=wrap;html=1;" vertex="1" parent="1">
          <mxGeometry x="260" y="-30" width="120" height="60" as="geometry" />
        </mxCell>
        <mxCell id="Ezx1aa0zkLy5vHlaYmTx-5" value="country" style="ellipse;whiteSpace=wrap;html=1;" vertex="1" parent="1">
          <mxGeometry x="380" width="120" height="60" as="geometry" />
        </mxCell>
        <mxCell id="Ezx1aa0zkLy5vHlaYmTx-6" value="city" style="ellipse;whiteSpace=wrap;html=1;" vertex="1" parent="1">
          <mxGeometry x="420" y="70" width="120" height="60" as="geometry" />
        </mxCell>
        <mxCell id="Ezx1aa0zkLy5vHlaYmTx-7" value="postal code" style="ellipse;whiteSpace=wrap;html=1;" vertex="1" parent="1">
          <mxGeometry x="70" y="200" width="120" height="60" as="geometry" />
        </mxCell>
        <mxCell id="Ezx1aa0zkLy5vHlaYmTx-10" value="" style="group" vertex="1" connectable="0" parent="1">
          <mxGeometry x="220" y="230" width="150" height="85" as="geometry" />
        </mxCell>
        <mxCell id="Ezx1aa0zkLy5vHlaYmTx-9" value="" style="ellipse;whiteSpace=wrap;html=1;" vertex="1" parent="Ezx1aa0zkLy5vHlaYmTx-10">
          <mxGeometry width="150" height="85" as="geometry" />
        </mxCell>
        <mxCell id="Ezx1aa0zkLy5vHlaYmTx-8" value="phone" style="ellipse;whiteSpace=wrap;html=1;" vertex="1" parent="Ezx1aa0zkLy5vHlaYmTx-10">
          <mxGeometry x="15" y="12.5" width="120" height="60" as="geometry" />
        </mxCell>
        <mxCell id="Ezx1aa0zkLy5vHlaYmTx-13" value="banners" style="rounded=0;whiteSpace=wrap;html=1;" vertex="1" parent="1">
          <mxGeometry x="710" y="140" width="120" height="60" as="geometry" />
        </mxCell>
        <mxCell id="Ezx1aa0zkLy5vHlaYmTx-14" value="&lt;u&gt;id&lt;/u&gt;" style="ellipse;whiteSpace=wrap;html=1;" vertex="1" parent="1">
          <mxGeometry x="575" y="60" width="130" height="60" as="geometry" />
        </mxCell>
        <mxCell id="Ezx1aa0zkLy5vHlaYmTx-15" value="photos" style="ellipse;whiteSpace=wrap;html=1;" vertex="1" parent="1">
          <mxGeometry x="705" width="130" height="60" as="geometry" />
        </mxCell>
        <mxCell id="Ezx1aa0zkLy5vHlaYmTx-16" value="url" style="ellipse;whiteSpace=wrap;html=1;" vertex="1" parent="1">
          <mxGeometry x="840" y="60" width="130" height="60" as="geometry" />
        </mxCell>
        <mxCell id="Ezx1aa0zkLy5vHlaYmTx-17" value="positions" style="ellipse;whiteSpace=wrap;html=1;" vertex="1" parent="1">
          <mxGeometry x="820" y="230" width="130" height="60" as="geometry" />
        </mxCell>
        <mxCell id="Ezx1aa0zkLy5vHlaYmTx-18" value="published" style="ellipse;whiteSpace=wrap;html=1;" vertex="1" parent="1">
          <mxGeometry x="560" y="230" width="130" height="60" as="geometry" />
        </mxCell>
        <mxCell id="Ezx1aa0zkLy5vHlaYmTx-19" value="catagories" style="rounded=0;whiteSpace=wrap;html=1;" vertex="1" parent="1">
          <mxGeometry x="220" y="500" width="120" height="60" as="geometry" />
        </mxCell>
        <mxCell id="Ezx1aa0zkLy5vHlaYmTx-20" value="&lt;u&gt;id&lt;/u&gt;" style="ellipse;whiteSpace=wrap;html=1;" vertex="1" parent="1">
          <mxGeometry x="60" y="440" width="120" height="60" as="geometry" />
        </mxCell>
        <mxCell id="Ezx1aa0zkLy5vHlaYmTx-21" value="name" style="ellipse;whiteSpace=wrap;html=1;" vertex="1" parent="1">
          <mxGeometry x="210" y="390" width="120" height="60" as="geometry" />
        </mxCell>
        <mxCell id="Ezx1aa0zkLy5vHlaYmTx-22" value="banner" style="ellipse;whiteSpace=wrap;html=1;" vertex="1" parent="1">
          <mxGeometry x="370" y="380" width="120" height="60" as="geometry" />
        </mxCell>
        <mxCell id="Ezx1aa0zkLy5vHlaYmTx-23" value="icon" style="ellipse;whiteSpace=wrap;html=1;" vertex="1" parent="1">
          <mxGeometry x="530" y="430" width="120" height="60" as="geometry" />
        </mxCell>
        <mxCell id="Ezx1aa0zkLy5vHlaYmTx-24" value="slug" style="ellipse;whiteSpace=wrap;html=1;" vertex="1" parent="1">
          <mxGeometry x="550" y="520" width="120" height="60" as="geometry" />
        </mxCell>
        <mxCell id="Ezx1aa0zkLy5vHlaYmTx-25" value="meta_title" style="ellipse;whiteSpace=wrap;html=1;" vertex="1" parent="1">
          <mxGeometry x="470" y="610" width="120" height="60" as="geometry" />
        </mxCell>
        <mxCell id="Ezx1aa0zkLy5vHlaYmTx-26" value="meta_description" style="ellipse;whiteSpace=wrap;html=1;" vertex="1" parent="1">
          <mxGeometry x="300" y="650" width="120" height="60" as="geometry" />
        </mxCell>
        <mxCell id="Ezx1aa0zkLy5vHlaYmTx-27" value="digital" style="ellipse;whiteSpace=wrap;html=1;" vertex="1" parent="1">
          <mxGeometry x="150" y="660" width="120" height="60" as="geometry" />
        </mxCell>
        <mxCell id="Ezx1aa0zkLy5vHlaYmTx-28" value="top" style="ellipse;whiteSpace=wrap;html=1;" vertex="1" parent="1">
          <mxGeometry x="40" y="560" width="120" height="60" as="geometry" />
        </mxCell>
      </root>
    </mxGraphModel>
  </diagram>
</mxfile>
